<svg width="500" height="400" viewBox="0 0 500 400" fill="none" xmlns="http://www.w3.org/2000/svg">
  <rect x="100" y="100" width="300" height="250" rx="20" fill="white" opacity="0.9"/>
  <circle cx="250" cy="150" r="40" fill="#3b82f6"/>
  <path d="M250 130L235 145L245 145L245 170L255 170L255 145L265 145L250 130Z" fill="white"/>
  <rect x="150" y="210" width="200" height="10" rx="5" fill="#e5e7eb"/>
  <rect x="150" y="230" width="150" height="10" rx="5" fill="#e5e7eb"/>
  <rect x="150" y="250" width="180" height="10" rx="5" fill="#e5e7eb"/>
  <circle cx="380" cy="120" r="30" fill="#10b981" opacity="0.3"/>
  <circle cx="120" cy="300" r="40" fill="#f59e0b" opacity="0.3"/>
  <path d="M250 320C250 320 200 300 200 260C200 240 210 230 230 230C240 230 245 235 250 240C255 235 260 230 270 230C290 230 300 240 300 260C300 300 250 320 250 320Z" fill="#ef4444" opacity="0.8"/>
</svg>
